<svg xmlns="http://www.w3.org/2000/svg" width="41.386" height="42.794" viewBox="0 0 41.386 42.794" preserveAspectRatio='none'>
    <g data-name="그룹 1379">
        <path data-name="패스 534" d="M123.566 21.548a51.935 51.935 0 0 0-.566-7.741L147.883 0v28.73l-24.385-4.6c.04-.85.068-1.709.068-2.586" transform="translate(-111.884)" style="fill:#e5c59e"/>
        <path data-name="패스 533" d="M147.913 28.73V43.3L123 29.478a50.214 50.214 0 0 0 .528-5.345z" transform="translate(-111.914 -.508)" style="fill:#ceaf8e"/>
        <path data-name="패스 535" d="m158.914 24.011-11.582-2.157a2.668 2.668 0 0 1 1.227-2.642l9.856-5.278a48.892 48.892 0 0 1 .567 7.522c0 .868-.027 1.716-.068 2.555" transform="translate(-147.317 -.09)" style="fill:#494949"/>
        <path data-name="패스 536" d="M158.967 24a50.247 50.247 0 0 1-.491 5.332L148.6 24a2.535 2.535 0 0 1-1.227-2.044z" transform="translate(-147.359 -.311)" style="fill:#232323"/>
        <path data-name="사각형 674" transform="translate(36)" style="fill:#d8b177" d="M0 0h5.386v14.366H0z"/>
        <path data-name="사각형 675" transform="translate(36 14.21)" style="fill:#cca46e" d="M0 0h5.386v14.366H0z"/>
        <path data-name="사각형 676" transform="translate(36 28.428)" style="fill:#bc9368" d="M0 0h5.386v14.366H0z"/>
    </g>
</svg>
