<svg xmlns="http://www.w3.org/2000/svg" width="35.982" height="42.999" viewBox="0 0 35.982 42.999" preserveAspectRatio='none'>
    <g data-name="그룹 1226">
        <path data-name="패스 534" d="M123.566 21.548a51.935 51.935 0 0 0-.566-7.741L147.883 0v28.73l-24.385-4.6c.04-.85.068-1.709.068-2.586" transform="translate(-111.901 -.001)" style="fill:#e5c59e"/>
        <path data-name="패스 533" d="M147.913 28.73V43.3L123 29.478a50.214 50.214 0 0 0 .528-5.345z" transform="translate(-111.932 -.303)" style="fill:#ceaf8e"/>
        <path data-name="패스 535" d="m158.914 24.011-11.582-2.157a2.668 2.668 0 0 1 1.227-2.642l9.857-5.4a50.585 50.585 0 0 1 .566 7.648c0 .868-.027 1.716-.068 2.555" transform="translate(-147.317 -.004)" style="fill:#494949"/>
        <path data-name="패스 536" d="M158.967 24a50.742 50.742 0 0 1-.538 5.372L148.6 24a2.535 2.535 0 0 1-1.227-2.044z" transform="translate(-147.359 -.186)" style="fill:#232323"/>
    </g>
</svg>
