<svg xmlns="http://www.w3.org/2000/svg" width="131" height="244.3" viewBox="0 0 131 244.3" >
    <g data-name="그룹 1263">
        <path data-name="사각형 629" d="M0 0h122v23a6 6 0 0 1-6 6H0V0z" transform="translate(0 189.3)" style="fill:#404040"/>
        <path data-name="패스 2698" d="M124.98 0a4.684 4.684 0 0 0-.5.073c-.76.347-1.532.658-2.292.993A292.394 292.394 0 0 1 0 26.357v188.918a290.38 290.38 0 0 0 125.035-26.68c1.034-.475.781-.435 1.808-.922 1.715-1.615 4.157-4.94 4.157-8.2V8.233C130.69 3.62 128.13 0 124.98 0" style="fill:#ffd939"/>
        <path data-name="사각형 632" transform="translate(0 218.3)" style="fill:none" d="M0 0h131v26H0z"/>
    </g>
</svg>
