<svg xmlns="http://www.w3.org/2000/svg" width="679.092" height="246.575" viewBox="0 0 679.092 246.575" preserveAspectRatio='none'>
    <g data-name="그룹 1269">
        <path data-name="사각형 629" d="M0 0h670v28a6 6 0 0 1-6 6H0V0z" transform="translate(0 186.575)" style="fill:#404040"/>
        <path data-name="패스 2698" d="M633.33 1.066C433.031 18.2 217.54 26.875 0 26.357v188.918c223.087.573 443.841-8.6 648.08-26.68 5.358-.475 4.046-.435 9.373-.922 8.888-1.615 21.347-.74 21.547-8.2l.092-177.157c-.033-6.177-5.292-4.9-25.979-3.137" transform="translate(0 2.275)" style="fill:#ffd939"/>
        <path data-name="사각형 632" transform="translate(548 220.575)" style="fill:none" d="M0 0h131v26H0z"/>
    </g>
</svg>
